<svg width="32" height="32" viewBox="0 0 32 32" fill="none" xmlns="http://www.w3.org/2000/svg">
<path d="M12.2041 27.3878H9.67353C6.87829 27.3878 4.6123 25.1218 4.6123 22.3266V14.3648C4.6123 12.595 5.53676 10.9537 7.05029 10.0364L13.3768 6.20215C14.9891 5.22498 17.011 5.22498 18.6233 6.20215L24.9498 10.0364C26.4634 10.9537 27.3878 12.595 27.3878 14.3648V22.3266C27.3878 25.1218 25.1218 27.3878 22.3266 27.3878H19.796M12.2041 27.3878V22.3266C12.2041 20.2302 13.9036 18.5307 16.0001 18.5307V18.5307C18.0965 18.5307 19.796 20.2302 19.796 22.3266V27.3878M12.2041 27.3878H19.796" stroke="#004F52" stroke-width="1.89796" stroke-linecap="round" stroke-linejoin="round"/>
</svg>
